<svg xmlns="http://www.w3.org/2000/svg" width="19.656" height="16" viewBox="0 0 19.656 16">
  <path id="RS_twitter1" d="M9.62,24.762A11.474,11.474,0,0,0,27.268,14.575a8.17,8.17,0,0,0,2.008-2.1,8.059,8.059,0,0,1-2.318.636,4.038,4.038,0,0,0,1.772-2.232,8.084,8.084,0,0,1-2.58.98,4.034,4.034,0,0,0-6.88,3.677,11.443,11.443,0,0,1-8.312-4.214A4.038,4.038,0,0,0,12.2,16.707a4.016,4.016,0,0,1-1.828-.5,4.038,4.038,0,0,0,3.277,4.012,4.038,4.038,0,0,1-1.819.069,4.034,4.034,0,0,0,3.767,2.8A8.106,8.106,0,0,1,9.62,24.762Z" transform="translate(-9.62 -10.572)" fill="#333"/>
</svg>
