<svg xmlns="http://www.w3.org/2000/svg" width="22.894" height="16" viewBox="0 0 22.894 16">
  <path id="Tracé_9" data-name="Tracé 9" d="M129.37,258.317a2.865,2.865,0,0,0-2.022-2.022c-1.325-.511-14.156-.762-17.878.015a2.865,2.865,0,0,0-2.022,2.022,32.213,32.213,0,0,0,.015,10.976,2.865,2.865,0,0,0,2.022,2.022c2.623.6,15.094.689,17.878,0a2.865,2.865,0,0,0,2.022-2.022A30.409,30.409,0,0,0,129.37,258.317Zm-13.159,8.924v-6.858l5.979,3.429Z" transform="translate(-106.984 -255.814)" fill="#f5f2e8"/>
</svg>
