<svg id="instagram" xmlns="http://www.w3.org/2000/svg" width="16" height="16" viewBox="0 0 16 16">
  <path id="Tracé_1" data-name="Tracé 1" d="M11.574,0H4.416A4.415,4.415,0,0,0,0,4.416v7.168A4.421,4.421,0,0,0,4.416,16h7.168A4.421,4.421,0,0,0,16,11.584V4.416A4.435,4.435,0,0,0,11.574,0Zm3,11.574a3,3,0,0,1-3,3H4.416a3,3,0,0,1-3-3V4.416a3,3,0,0,1,3-3h7.168a3,3,0,0,1,3,3l-.009,7.158Z" fill="#333"/>
  <path id="Tracé_2" data-name="Tracé 2" d="M44.42,41a3.422,3.422,0,1,0,3.436,3.418A3.421,3.421,0,0,0,44.42,41Zm0,5.666a2.243,2.243,0,1,1,2.248-2.24A2.252,2.252,0,0,1,44.42,46.666Z" transform="translate(-36.428 -36.428)" fill="#333"/>
  <path id="Tracé_3" data-name="Tracé 3" d="M120.127,28.3a1.272,1.272,0,0,0-.87.357,1.2,1.2,0,0,0-.357.87,1.272,1.272,0,0,0,.357.87,1.251,1.251,0,0,0,.87.357A1.272,1.272,0,0,0,121,30.4a1.2,1.2,0,0,0,.357-.87,1.272,1.272,0,0,0-.357-.87A1.2,1.2,0,0,0,120.127,28.3Z" transform="translate(-107.958 -25.696)" fill="#333"/>
</svg>
